<?xml version="1.0" encoding="UTF-8"?>
<!-- Generator: visioncortex VTracer 0.6.3 -->
<svg version="1.1" xmlns="http://www.w3.org/2000/svg" width="1280" height="1280">
<path d="M0 0 C422.4 0 844.8 0 1280 0 C1280 422.4 1280 844.8 1280 1280 C857.6 1280 435.2 1280 0 1280 C0 857.6 0 435.2 0 0 Z " fill="#021822" transform="translate(0,0)"/>
<path d="M0 0 C0.97 -0 0.97 -0 1.95 -0 C4.08 0 6.2 0.02 8.33 0.03 C9.81 0.04 11.28 0.04 12.76 0.04 C16.64 0.05 20.52 0.07 24.4 0.09 C28.36 0.11 32.32 0.12 36.29 0.13 C44.06 0.15 51.83 0.18 59.6 0.23 C60.26 1.55 60.92 2.87 61.6 4.23 C60.1 4.59 60.1 4.59 58.57 4.96 C45.4 7.9 45.4 7.9 35.79 16.84 C31.17 26.13 29.23 36.14 27.85 46.35 C27.68 47.63 27.68 47.63 27.5 48.93 C25.31 67.22 25.45 85.78 25.47 104.18 C25.47 106.48 25.47 108.79 25.47 111.1 C25.46 117.3 25.46 123.5 25.47 129.69 C25.47 136.23 25.47 142.76 25.47 149.29 C25.46 160.96 25.47 172.63 25.47 184.3 C25.48 194.82 25.48 205.34 25.47 215.86 C25.47 228.16 25.46 240.45 25.47 252.74 C25.47 259.22 25.47 265.7 25.46 272.18 C25.46 278.28 25.46 284.38 25.47 290.48 C25.47 292.69 25.47 294.91 25.47 297.13 C25.17 334.56 25.17 334.56 30.91 371.41 C31.2 372.58 31.2 372.58 31.48 373.77 C33.15 379.96 35.68 385.07 40.92 388.93 C41.66 389.3 42.4 389.66 43.16 390.04 C44.28 390.61 44.28 390.61 45.42 391.18 C46.5 391.7 46.5 391.7 47.6 392.23 C48.6 392.78 48.6 392.78 49.62 393.34 C51.77 394.3 53.39 394.49 55.73 394.6 C57.64 394.91 57.64 394.91 59.6 395.23 C60.26 396.55 60.92 397.87 61.6 399.23 C26.29 399.23 -9.02 399.23 -45.4 399.23 C-45.4 398.24 -45.4 397.25 -45.4 396.23 C-44.22 395.95 -44.22 395.95 -43.02 395.68 C-32.23 393.09 -25.47 391.02 -19.24 381.45 C-10.44 365.68 -11.14 343.8 -10.79 326.19 C-10.78 325.38 -10.76 324.56 -10.74 323.71 C-10.15 297.06 -10.17 270.39 -10.1 243.73 C-10.08 235.86 -10.05 227.99 -10.03 220.11 C-9.98 206.08 -9.94 192.05 -9.9 178.02 C-9.86 164.42 -9.82 150.82 -9.77 137.22 C-9.77 135.96 -9.77 135.96 -9.76 134.67 C-9.75 130.43 -9.74 126.2 -9.72 121.96 C-9.61 87.05 -9.5 52.14 -9.4 17.23 C-9.73 18.55 -10.06 19.87 -10.4 21.23 C-11.06 21.23 -11.72 21.23 -12.4 21.23 C-12.57 21.82 -12.73 22.41 -12.91 23.01 C-14.84 29.68 -17.17 36.13 -19.65 42.6 C-22.46 50.01 -25.2 57.42 -27.77 64.91 C-32.11 77.49 -36.92 89.89 -41.67 102.31 C-47.75 118.22 -53.83 134.13 -59.4 150.23 C-60.27 152.71 -61.15 155.19 -62.02 157.66 C-62.39 158.69 -62.75 159.72 -63.13 160.79 C-64.11 163.46 -65.15 166.09 -66.22 168.73 C-68.62 174.69 -70.81 180.73 -73 186.77 C-76.29 195.83 -79.6 204.89 -83.15 213.85 C-85.78 220.51 -88.16 227.22 -90.49 233.99 C-93.39 242.33 -96.54 250.58 -99.69 258.82 C-102.39 265.89 -105.06 272.95 -107.52 280.1 C-109.78 286.65 -112.28 293.1 -114.84 299.54 C-117.66 306.66 -120.35 313.8 -122.84 321.04 C-126.65 332.15 -130.9 343.09 -135.16 354.04 C-137.25 359.43 -139.33 364.83 -141.4 370.23 C-144.99 370.23 -145.79 369.6 -148.4 367.23 C-149.66 365.13 -149.66 365.13 -150.74 362.67 C-151.16 361.74 -151.57 360.81 -152 359.85 C-152.44 358.84 -152.88 357.83 -153.34 356.79 C-154.31 354.61 -155.28 352.43 -156.26 350.25 C-156.77 349.11 -157.28 347.96 -157.8 346.78 C-160.5 340.77 -163.3 334.82 -166.09 328.85 C-169.7 321.09 -173.28 313.32 -176.71 305.48 C-179.03 300.19 -181.47 295 -184.09 289.85 C-192.62 273.08 -200.25 255.81 -208.02 238.68 C-213.21 227.23 -218.57 215.87 -224.02 204.54 C-228.53 195.18 -232.96 185.78 -237.34 176.35 C-237.87 175.21 -238.4 174.06 -238.95 172.88 C-239.95 170.7 -240.96 168.52 -241.96 166.34 C-242.92 164.26 -243.91 162.19 -244.92 160.13 C-245.39 159.16 -245.86 158.19 -246.34 157.2 C-246.76 156.35 -247.18 155.5 -247.61 154.62 C-248.78 151.06 -247.95 148.72 -246.49 145.38 C-246.13 144.67 -245.77 143.96 -245.4 143.23 C-244.79 141.9 -244.19 140.56 -243.59 139.23 C-243.08 138.13 -243.08 138.13 -242.57 137.01 C-240.71 132.6 -239.2 128.06 -237.68 123.52 C-235.97 118.51 -233.85 113.92 -231.4 109.23 C-228.07 112.3 -226.53 115.9 -224.71 119.98 C-222.04 125.82 -219.23 131.53 -216.15 137.16 C-213.57 141.9 -211.34 146.62 -209.44 151.67 C-207.93 155.39 -206.07 158.92 -204.25 162.49 C-201.8 167.33 -199.57 172.26 -197.4 177.23 C-194.57 183.68 -191.57 190 -188.38 196.28 C-180.43 212.01 -173.03 228.05 -165.63 244.04 C-162.68 250.43 -159.65 256.76 -156.46 263.04 C-153.59 268.7 -150.94 274.42 -148.4 280.23 C-145.24 287.44 -141.86 294.5 -138.28 301.5 C-137.04 303.93 -135.85 306.38 -134.7 308.86 C-134.19 309.95 -133.68 311.04 -133.15 312.16 C-132.49 313.6 -132.49 313.6 -131.82 315.07 C-130.59 317.4 -130.59 317.4 -128.23 318.04 C-127.62 318.1 -127.02 318.16 -126.4 318.23 C-126.05 316.97 -125.7 315.71 -125.34 314.41 C-122.76 305.88 -119.53 297.57 -116.4 289.23 C-115.99 288.14 -115.58 287.05 -115.16 285.92 C-113.26 280.85 -111.35 275.77 -109.45 270.69 C-105.33 259.72 -101.22 248.75 -97.13 237.77 C-96.45 235.94 -95.76 234.11 -95.08 232.29 C-91.21 221.93 -87.4 211.55 -83.85 201.07 C-82.24 196.39 -80.4 191.91 -78.35 187.4 C-76.89 184.07 -75.71 180.65 -74.53 177.2 C-74.01 175.71 -73.49 174.22 -72.97 172.73 C-72.71 171.98 -72.45 171.23 -72.18 170.46 C-69.96 164.14 -67.61 157.88 -65.27 151.6 C-64.86 150.48 -64.86 150.48 -64.44 149.34 C-60.2 137.93 -55.83 126.57 -51.39 115.22 C-47.65 105.66 -44.2 96.02 -40.9 86.29 C-36.53 73.49 -31.6 60.91 -26.73 48.29 C-24.27 41.91 -21.86 35.51 -19.46 29.1 C-18.92 27.67 -18.92 27.67 -18.37 26.2 C-16.76 21.9 -15.17 17.6 -13.62 13.27 C-13.35 12.52 -13.08 11.77 -12.8 10.99 C-12.3 9.62 -11.81 8.24 -11.34 6.87 C-9.07 0.61 -6.34 -0.02 0 0 Z " fill="#F8FBFC" transform="translate(890.399169921875,587.77294921875)"/>
<path d="M0 0 C3.49 -0.05 6.98 -0.13 10.47 -0.26 C14.52 -0.41 18.56 -0.46 22.62 -0.5 C23.86 -0.56 25.1 -0.62 26.38 -0.68 C31.83 -0.67 35.03 -0.53 39.09 3.31 C41.47 6.26 43.42 9.44 45.34 12.7 C46.26 14.12 47.19 15.54 48.13 16.95 C48.89 18.2 49.65 19.45 50.4 20.7 C53.87 26.41 57.5 31.99 61.22 37.54 C64.7 42.73 68.11 47.97 71.53 53.2 C72.27 54.34 73.02 55.48 73.76 56.62 C77.7 62.66 81.64 68.7 85.56 74.74 C89.98 81.57 94.44 88.38 98.97 95.14 C113.79 117.3 128.3 139.68 142.81 162.04 C148 170.06 153.22 178.06 158.54 185.99 C162.55 191.98 166.46 198.04 170.38 204.09 C173.52 208.93 176.7 213.76 179.92 218.55 C181.89 221.49 183.84 224.44 185.8 227.39 C186.87 229 187.96 230.61 189.05 232.22 C190.77 234.77 192.46 237.33 194.15 239.89 C194.69 240.67 195.22 241.45 195.77 242.25 C198.12 245.85 199.34 247.88 199.34 252.26 C198.22 256.13 196.99 259.89 195.53 263.64 C195.26 264.35 194.99 265.06 194.71 265.78 C193.11 269.9 191.37 273.86 189.29 277.75 C187.27 281.91 185.85 286.34 184.34 290.7 C184.01 289.71 183.68 288.72 183.34 287.7 C182.35 287.7 181.36 287.7 180.34 287.7 C178.87 285.92 178.87 285.92 177.34 283.42 C176.77 282.5 176.2 281.59 175.61 280.65 C175 279.65 174.4 278.66 173.78 277.64 C172.5 275.59 171.22 273.54 169.95 271.49 C169.32 270.49 168.7 269.49 168.06 268.45 C165.96 265.1 163.8 261.8 161.59 258.52 C161.22 257.96 160.84 257.4 160.45 256.82 C159.61 255.56 158.76 254.3 157.91 253.04 C154.75 248.34 151.61 243.63 148.47 238.92 C147.32 237.2 146.17 235.49 145.02 233.77 C140.86 227.54 136.76 221.27 132.71 214.96 C128.65 208.62 124.53 202.31 120.4 196.02 C120 195.4 119.6 194.79 119.19 194.16 C112.69 184.25 106.14 174.38 99.56 164.54 C94.46 156.91 89.43 149.25 84.5 141.52 C82.01 137.63 79.48 133.76 76.97 129.89 C70.6 120.12 70.6 120.12 67.56 115.38 C62.79 107.99 57.98 100.64 53.09 93.33 C46.6 83.63 40.18 73.89 33.78 64.14 C33.31 63.43 32.84 62.71 32.35 61.97 C26.7 53.38 21.08 44.77 15.48 36.15 C14.88 35.24 14.29 34.32 13.68 33.38 C12.23 31.15 10.79 28.93 9.34 26.7 C9.29 55.67 9.26 84.64 9.24 113.61 C9.24 117.04 9.23 120.48 9.23 123.91 C9.23 124.94 9.23 124.94 9.23 125.99 C9.22 137 9.2 148.01 9.19 159.02 C9.17 170.35 9.16 181.68 9.15 193.02 C9.15 199.37 9.14 205.72 9.13 212.07 C8.88 248.44 8.88 248.44 11.34 284.7 C11.42 285.46 11.5 286.21 11.58 286.99 C12 290.95 12.5 294.89 13.09 298.83 C13.26 299.97 13.43 301.11 13.6 302.29 C18.38 333.17 26.37 368.69 52.96 388.22 C59.24 392.14 66.02 394.69 73.34 395.7 C73.34 396.36 73.34 397.02 73.34 397.7 C74 397.7 74.66 397.7 75.34 397.7 C75.34 398.36 75.34 399.02 75.34 399.7 C70.2 400.75 65.27 400.85 60.05 400.85 C58.68 400.85 58.68 400.85 57.27 400.86 C54.25 400.87 51.24 400.87 48.22 400.87 C46.11 400.88 44.01 400.88 41.91 400.88 C37.5 400.89 33.09 400.89 28.68 400.89 C23.04 400.89 17.4 400.9 11.76 400.92 C7.42 400.93 3.07 400.93 -1.27 400.93 C-3.35 400.93 -5.43 400.94 -7.51 400.95 C-10.42 400.96 -13.33 400.95 -16.24 400.95 C-17.09 400.95 -17.95 400.96 -18.83 400.96 C-23.82 400.94 -27.93 400.31 -32.66 398.7 C-31.06 396.8 -30.17 395.8 -27.68 395.33 C-26.95 395.31 -26.22 395.29 -25.47 395.27 C-18.51 394.66 -13.72 392.14 -8.91 387.08 C2.86 372.44 2.23 349.29 2.89 331.47 C2.94 330.35 2.98 329.22 3.02 328.06 C3.42 316.51 3.49 304.97 3.49 293.41 C3.49 291.12 3.49 288.82 3.5 286.52 C3.5 280.37 3.51 274.22 3.51 268.06 C3.51 264.2 3.51 260.33 3.51 256.46 C3.52 243.61 3.53 230.75 3.53 217.9 C3.53 216.87 3.53 216.87 3.53 215.82 C3.53 214.78 3.53 214.78 3.53 213.73 C3.52 202.58 3.53 191.44 3.55 180.3 C3.56 168.76 3.57 157.22 3.57 145.69 C3.57 139.25 3.57 132.81 3.58 126.37 C7.44 67.19 7.44 67.19 -10.23 13.1 C-15.27 8.17 -21.58 7.13 -28.34 6.29 C-30.66 5.7 -30.66 5.7 -32.66 2.7 C-27.16 -2.8 -7.44 0.11 0 0 Z " fill="#F8FBFC" transform="translate(367.65982723236084,272.29612255096436)"/>
<path d="M0 0 C1.42 -0.01 1.42 -0.01 2.86 -0.02 C5.96 -0.03 9.06 -0.04 12.16 -0.04 C14.32 -0.05 16.48 -0.05 18.64 -0.06 C23.16 -0.07 27.68 -0.08 32.19 -0.08 C37.99 -0.08 43.79 -0.11 49.59 -0.14 C54.04 -0.16 58.5 -0.16 62.95 -0.16 C65.09 -0.17 67.23 -0.17 69.37 -0.19 C72.35 -0.2 75.33 -0.2 78.31 -0.2 C79.2 -0.2 80.09 -0.21 81.01 -0.22 C83.46 -0.21 83.46 -0.21 87.33 0.16 C88.32 1.65 88.32 1.65 89.33 3.16 C86.92 5.57 85.37 5.8 82.08 6.6 C73.17 8.96 67.95 12.15 63.17 20.09 C54.69 37.19 55.09 60.15 54.85 78.73 C54.7 85.44 53.89 90.96 51.33 97.16 C50.95 98.17 50.56 99.18 50.16 100.23 C49.83 101.05 49.49 101.87 49.15 102.72 C48.63 103.99 48.63 103.99 48.1 105.29 C47.85 105.91 47.59 106.52 47.33 107.16 C45.26 104.05 44.82 102.3 44.18 98.67 C43.99 97.58 43.79 96.49 43.58 95.36 C43.38 94.2 43.17 93.04 42.96 91.85 C41.21 82.43 39.36 73.27 36.33 64.16 C35.76 62.43 35.76 62.43 35.18 60.67 C28.94 42.47 19.95 21.68 3.33 10.62 C-1.04 8.49 -5.55 7.43 -10.31 6.49 C-15.48 5.45 -15.48 5.45 -17.67 2.16 C-14.22 -1.28 -4.56 0.01 0 0 Z " fill="#F9FCFD" transform="translate(578.667236328125,272.8388671875)"/>
<path d="M0 0 C4.01 2.9 7.02 6.57 10.03 10.46 C10.81 11.45 11.59 12.44 12.4 13.46 C16.31 20.68 17.18 28.94 14.96 36.84 C12.13 44.65 6.04 51.98 -0.97 56.46 C-8.9 59.37 -18.14 59.95 -26 56.5 C-34.46 52.04 -41.78 46.79 -44.97 37.46 C-46.63 29.56 -46.22 21.91 -42.97 14.46 C-33.08 0.64 -16.73 -8.75 0 0 Z " fill="#F9FCFD" transform="translate(620.97265625,593.53515625)"/>
<path d="M0 0 C0.66 0.33 1.32 0.66 2 1 C2.54 3.43 2.95 5.78 3.3 8.23 C3.53 9.76 3.77 11.29 4 12.82 C4.19 14.03 4.19 14.03 4.37 15.26 C6.59 29.81 9.03 44.1 14 58 C14.26 58.73 14.52 59.45 14.78 60.2 C19.63 73.33 26.87 85.43 39 93 C39.63 93.45 40.27 93.89 40.92 94.36 C48.61 99.6 56.84 101.26 66 102 C66.33 103.32 66.66 104.64 67 106 C31.69 106 -3.62 106 -40 106 C-40 105.01 -40 104.02 -40 103 C-39.06 102.84 -39.06 102.84 -38.09 102.67 C-32.43 101.62 -27.33 100.2 -22 98 C-20.82 97.54 -20.82 97.54 -19.62 97.06 C-17.5 95.67 -17.1 94.29 -16 92 C-15.54 91.19 -15.07 90.38 -14.6 89.55 C-4.63 71.39 -5.26 48.46 -4.8 28.25 C-4.77 26.99 -4.74 25.74 -4.7 24.44 C-4.65 22.04 -4.62 19.64 -4.6 17.24 C-4.47 10.38 -3.6 5.88 0 0 Z " fill="#F9FCFD" transform="translate(585,881)"/>
<path d="M0 0 C2.9 2.35 4.96 4.89 7 8 C7.64 8.97 8.28 9.94 8.94 10.94 C10.58 15.66 11 20.17 9.31 24.96 C6.59 30.18 2.71 33.91 -2.8 36.12 C-6.12 37.03 -8.84 37.23 -12.27 37.2 C-14 37.19 -14 37.19 -15.77 37.18 C-16.96 37.16 -18.15 37.14 -19.38 37.12 C-20.59 37.12 -21.8 37.11 -23.05 37.1 C-26.03 37.07 -29.02 37.04 -32 37 C-32.33 36.34 -32.66 35.68 -33 35 C-31.68 34.34 -30.36 33.68 -29 33 C-28.5 17.65 -28.5 17.65 -28 2 C-28.66 2 -29.32 2 -30 2 C-30.66 0.68 -31.32 -0.64 -32 -2 C-22.89 -5.04 -8.61 -4.01 0 0 Z " fill="#F9FCFD" transform="translate(625,528)"/>
<path d="M0 0 C2.01 2.01 1.21 6.07 1.25 8.83 C1.28 10.45 1.31 12.07 1.35 13.69 C1.39 16.25 1.44 18.81 1.48 21.37 C1.52 23.84 1.57 26.3 1.62 28.77 C1.63 29.53 1.64 30.3 1.65 31.08 C1.73 34.86 1.89 37.8 4 41 C1.29 42.35 -1.01 42.07 -4 42 C-4 41.34 -4 40.68 -4 40 C-6.17 40.51 -8 41 -10 42 C-16.12 42.6 -19.06 41.32 -24 38 C-24.93 37.38 -24.93 37.38 -25.88 36.75 C-28.51 32.65 -28.14 27.99 -27.5 23.38 C-25.54 18.96 -23.34 16.21 -19 14 C-14.91 13.36 -10.77 13.12 -7 15 C-7.33 11.04 -7.66 7.08 -8 3 C-9.32 2.67 -10.64 2.34 -12 2 C-8.68 -1.32 -4.34 -1.61 0 0 Z " fill="#F8FBFC" transform="translate(852,452)"/>
<path d="M0 0 C3.35 2.99 6.78 6.59 7.2 11.21 C7.37 20.31 7.37 20.31 4 24 C0.38 26.92 -2.02 28.05 -6.75 27.81 C-10 27 -10 27 -13 26 C-13.29 29.05 -13.46 31.96 -13 35 C-10.63 37.01 -10.63 37.01 -8 38 C-8 38.66 -8 39.32 -8 40 C-13.28 40 -18.56 40 -24 40 C-24 39.01 -24 38.02 -24 37 C-23.34 37 -22.68 37 -22 37 C-21.91 32.5 -21.86 28 -21.81 23.5 C-21.79 22.23 -21.76 20.96 -21.74 19.66 C-21.68 12.7 -21.97 7.31 -25 1 C-21.27 -0.05 -17.87 -0.07 -14 0 C-14 0.66 -14 1.32 -14 2 C-11.11 1.18 -11.11 1.18 -9.25 -0.12 C-5.72 -1.5 -3.61 -1.06 0 0 Z " fill="#F9FCFD" transform="translate(808,538)"/>
<path d="M0 0 C4.25 2.03 7.2 5.71 9 10 C9.53 14.73 9.5 16.97 7.44 21.25 C3.42 25.78 0.08 27.7 -5.94 28.56 C-11.67 28.26 -15.82 24.91 -20 21.25 C-21.64 17.56 -21.51 13.97 -21 10 C-17.06 0.36 -9.64 -1.65 0 0 Z " fill="#F9FCFD" transform="translate(674,466)"/>
<path d="M0 0 C3.78 3.89 5.39 6.68 5.75 12.12 C5.6 16.93 4.28 19.54 0.89 22.91 C-2.91 25.9 -5.93 26.25 -10.69 26.25 C-15.68 25.44 -19.25 22.73 -22.81 19.25 C-25.16 15.67 -25.11 12.46 -24.41 8.24 C-23.17 4.09 -20.7 1.35 -16.98 -0.82 C-11.02 -3.42 -5.67 -3.53 0 0 Z " fill="#F9FCFD" transform="translate(773.8125,539.75)"/>
<path d="M0 0 C1.92 -0.05 3.83 -0.09 5.75 -0.12 C7.35 -0.16 7.35 -0.16 8.98 -0.2 C11.96 -0 13.53 0.4 16 2 C20.95 7.69 21.67 13.71 21.36 21.04 C20.77 25.91 19.53 28.69 15.81 31.88 C11.12 33.75 7.08 33.88 2.4 31.9 C0 30 0 30 -0.57 26.91 C-0.54 25.66 -0.52 24.42 -0.49 23.14 C-0.48 22.15 -0.48 22.15 -0.47 21.14 C-0.44 19.03 -0.38 16.92 -0.31 14.81 C-0.29 13.38 -0.26 11.95 -0.24 10.52 C-0.19 7.01 -0.1 3.51 0 0 Z " fill="#021822" transform="translate(605,529)"/>
<path d="M0 0 C4.09 -0.05 8.19 -0.09 12.28 -0.11 C13.67 -0.12 15.07 -0.13 16.46 -0.15 C18.46 -0.18 20.46 -0.19 22.46 -0.2 C24.27 -0.21 24.27 -0.21 26.11 -0.23 C29 0 29 0 31 2 C31.27 4.69 31.09 7.29 31 10 C30.67 9.34 30.34 8.68 30 8 C29.01 7.67 28.02 7.34 27 7 C26.34 6.01 25.68 5.02 25 4 C20.68 3.27 16.39 3.22 12 3 C12.33 7.62 12.66 12.24 13 17 C15.31 17 17.62 17 20 17 C21.98 15.14 21.98 15.14 23 13 C23.66 13.33 24.32 13.66 25 14 C25 18.29 25 22.58 25 27 C24.34 27 23.68 27 23 27 C23 26.34 23 25.68 23 25 C22.01 24.67 21.02 24.34 20 24 C20 23.34 20 22.68 20 22 C17.36 22 14.72 22 12 22 C12 26.29 12 30.58 12 35 C13.65 35.66 15.3 36.32 17 37 C17.99 37.66 18.98 38.32 20 39 C13.07 39 6.14 39 -1 39 C-1 38.34 -1 37.68 -1 37 C0.98 36.5 0.98 36.5 3 36 C3.07 31.68 3.13 27.35 3.16 23.03 C3.18 21.56 3.2 20.09 3.23 18.62 C3.26 16.5 3.28 14.39 3.29 12.27 C3.31 11 3.32 9.72 3.34 8.41 C2.98 4.79 2.11 2.92 0 0 Z " fill="#F9FCFD" transform="translate(593,454)"/>
<path d="M0 0 C2.93 0.22 2.93 0.22 5 -1 C8.08 -1.48 10.93 -1.57 14 -1 C17.17 1.35 18.76 4.27 20 8 C20.31 11.58 20.51 15.16 20.72 18.75 C20.87 22.01 20.87 22.01 22 25 C22.99 25.33 23.98 25.66 25 26 C19.72 26 14.44 26 9 26 C8.67 25.34 8.34 24.68 8 24 C9.32 24 10.64 24 12 24 C11.91 21.06 11.81 18.13 11.69 15.19 C11.66 14.35 11.64 13.52 11.62 12.66 C11.57 11.46 11.57 11.46 11.51 10.23 C11.49 9.49 11.46 8.75 11.43 7.99 C10.89 5.48 10.03 4.55 8 3 C5.37 2.75 5.37 2.75 3 3 C1.05 10.68 -0.24 17.43 3 25 C3.66 25.33 4.32 25.66 5 26 C-0.28 26 -5.56 26 -11 26 C-11 25.34 -11 24.68 -11 24 C-9.68 24 -8.36 24 -7 24 C-7 17.4 -7 10.8 -7 4 C-8.32 3.34 -9.64 2.68 -11 2 C-7.46 -1.54 -4.66 -1.08 0 0 Z " fill="#F8FBFC" transform="translate(798,467)"/>
<path d="M0 0 C0.66 0.99 1.32 1.98 2 3 C2.33 2.01 2.66 1.02 3 0 C6.79 -1.89 10.89 -1.72 15 -1 C18.03 0.71 19.04 2.7 20 6 C20.54 11.33 20.29 16.66 20 22 C20.99 22.33 21.98 22.66 23 23 C23.5 24.49 23.5 24.49 24 26 C19.38 26 14.76 26 10 26 C9.67 25.34 9.34 24.68 9 24 C9.99 23.67 10.98 23.34 12 23 C12.08 20.6 12.14 18.21 12.19 15.81 C12.21 15.14 12.24 14.47 12.26 13.77 C12.33 9.29 11.67 6.61 9 3 C6.55 3.11 6.55 3.11 4 4 C1.91 7.88 1.76 11.27 1.81 15.62 C1.82 16.75 1.83 17.88 1.83 19.04 C1.87 22.06 1.87 22.06 3 25 C3.66 25.33 4.32 25.66 5 26 C0.38 26 -4.24 26 -9 26 C-9.33 25.34 -9.66 24.68 -10 24 C-9.01 23.67 -8.02 23.34 -7 23 C-6.92 20.46 -6.86 17.92 -6.81 15.38 C-6.79 14.66 -6.76 13.95 -6.74 13.21 C-6.67 8.38 -7.44 5.25 -10 1 C-6.27 -0.81 -3.97 -1.4 0 0 Z " fill="#F9FCFD" transform="translate(697,467)"/>
<path d="M0 0 C3.48 3.33 5.72 6.09 6 11 C5 12 5 12 3.23 12.11 C2.49 12.11 1.74 12.1 0.96 12.1 C0.16 12.09 -0.65 12.09 -1.49 12.09 C-2.34 12.08 -3.19 12.07 -4.06 12.06 C-4.92 12.06 -5.77 12.05 -6.65 12.05 C-8.77 12.04 -10.88 12.02 -13 12 C-12.58 13.46 -12.14 14.92 -11.69 16.38 C-11.44 17.19 -11.2 18 -10.95 18.84 C-10.09 21.33 -10.09 21.33 -7 23 C-4.78 23.28 -4.78 23.28 -2.44 23.19 C-1.65 23.18 -0.87 23.17 -0.06 23.17 C2.06 23.12 2.06 23.12 4 22 C3 25 3 25 -0.06 26.75 C-4.17 28.32 -7.83 28.4 -12 27 C-15.93 25.08 -19.21 23.05 -20.83 18.85 C-21.66 13.57 -20.76 9.63 -18 5 C-15.55 2.3 -13.04 0.37 -9.56 -0.88 C-6.09 -1.04 -3.38 -0.91 0 0 Z " fill="#F7FBFC" transform="translate(840,538)"/>
<path d="M0 0 C2.93 2.46 4.88 4.82 7 8 C7 9.65 7 11.3 7 13 C1.06 13 -4.88 13 -11 13 C-10.73 14.44 -10.46 15.89 -10.19 17.38 C-10.04 18.19 -9.89 19 -9.73 19.84 C-9.12 22.36 -9.12 22.36 -6 24 C-0.92 24.98 2.29 25.5 7 23 C3.97 26.5 1.55 28.04 -3 29 C-8.68 29.1 -12.57 27.69 -17 24 C-19.58 19.78 -19.66 15.82 -19 11 C-17.65 7.2 -15.76 4.57 -12.5 2.12 C-8.28 0.22 -4.66 -0.57 0 0 Z " fill="#F9FCFD" transform="translate(658,537)"/>
<path d="M0 0 C2.28 2.03 3.84 4.17 5 7 C5 8.65 5 10.3 5 12 C-0.94 12 -6.88 12 -13 12 C-12.73 13.44 -12.46 14.89 -12.19 16.38 C-12.04 17.19 -11.89 18 -11.73 18.84 C-11.12 21.36 -11.12 21.36 -8 23 C-4.32 23.94 -1.09 24.41 2.5 23.06 C3.24 22.54 3.24 22.54 4 22 C3 25 3 25 0 26.75 C-4.45 28.46 -8.47 28.47 -13 27 C-16.31 24.88 -19.22 22.55 -21 19 C-21.42 14.84 -21.47 11.14 -19.88 7.25 C-17.09 3.9 -14.13 0.99 -10.12 -0.88 C-6.57 -1.08 -3.37 -1.2 0 0 Z " fill="#F9FCFD" transform="translate(722,538)"/>
<path d="M0 0 C2.8 1.72 3.37 2.97 5 6 C5 7.98 5 9.96 5 12 C-0.94 12.33 -6.88 12.66 -13 13 C-12 20.82 -12 20.82 -8 23 C-5.82 23.49 -5.82 23.49 -3.5 23.69 C-2.73 23.77 -1.95 23.86 -1.16 23.95 C1.19 24.13 1.19 24.13 4 23 C4 23.66 4 24.32 4 25 C-0.61 27.76 -4.68 28.95 -10 28 C-13.87 26.43 -17.32 24.22 -20 21 C-21.38 16.49 -21.2 12.68 -19.88 8.19 C-15.2 0.24 -8.72 -1.32 0 0 Z " fill="#F9FCFD" transform="translate(778,466)"/>
<path d="M0 0 C0.01 1.1 0.03 2.2 0.04 3.33 C0.1 7.42 0.18 11.5 0.26 15.59 C0.3 17.36 0.32 19.12 0.35 20.89 C0.38 23.43 0.43 25.97 0.49 28.52 C0.49 29.3 0.5 30.09 0.51 30.91 C0.64 35.68 1 37 4 41 C-0.95 41 -5.9 41 -11 41 C-11.33 40.34 -11.66 39.68 -12 39 C-10.51 38.5 -10.51 38.5 -9 38 C-8.93 33.19 -8.87 28.39 -8.84 23.58 C-8.82 21.95 -8.8 20.31 -8.77 18.68 C-8.74 16.33 -8.72 13.98 -8.71 11.63 C-8.69 10.9 -8.68 10.17 -8.66 9.41 C-8.62 7.13 -8.62 7.13 -9 4 C-9.99 3.34 -10.98 2.68 -12 2 C-11.34 2 -10.68 2 -10 2 C-10 1.34 -10 0.68 -10 0 C-6.31 -1.23 -3.79 -0.64 0 0 Z " fill="#F8FBFC" transform="translate(742,524)"/>
<path d="M0 0 C1.96 -0.05 3.92 -0.09 5.88 -0.12 C7.51 -0.16 7.51 -0.16 9.18 -0.2 C12 0 12 0 14 2 C13.01 2.33 12.02 2.66 11 3 C11.29 3.84 11.58 4.69 11.88 5.55 C12.25 6.65 12.62 7.75 13 8.88 C13.37 9.97 13.74 11.06 14.12 12.18 C15 15 15 15 15 17 C18.08 16.33 18.08 16.33 19.2 14.07 C19.55 13.29 19.89 12.5 20.25 11.69 C20.61 10.91 20.96 10.13 21.33 9.32 C22.09 6.7 21.9 5.54 21 3 C20.67 2.01 20.34 1.02 20 0 C21.26 -0.04 22.52 -0.08 23.81 -0.12 C24.52 -0.15 25.23 -0.17 25.96 -0.2 C28 0 28 0 31 2 C30.39 2.56 29.77 3.12 29.14 3.69 C26.92 6.09 25.95 7.93 24.78 10.95 C24.41 11.88 24.03 12.81 23.64 13.77 C22.88 15.72 22.11 17.68 21.36 19.64 C20.98 20.57 20.61 21.49 20.22 22.45 C19.89 23.3 19.56 24.15 19.22 25.02 C18 27 18 27 15.99 27.87 C14 28 14 28 11.97 26.62 C9.27 23.02 7.94 19.22 6.44 15 C3.99 8.09 3.99 8.09 0 2 C0 1.34 0 0.68 0 0 Z " fill="#F8FBFC" transform="translate(668,538)"/>
<path d="M0 0 C0.58 0.52 1.15 1.03 1.75 1.56 C1.42 2.88 1.09 4.2 0.75 5.56 C-1.89 5.56 -4.53 5.56 -7.25 5.56 C-9.09 11.21 -9.8 16.65 -10.25 22.56 C-9.61 22.85 -8.97 23.14 -8.31 23.44 C-6.25 24.56 -6.25 24.56 -5.25 26.56 C-7.71 26.62 -10.17 26.66 -12.62 26.69 C-13.67 26.71 -13.67 26.71 -14.74 26.74 C-16.58 26.76 -18.42 26.67 -20.25 26.56 C-20.91 25.9 -21.57 25.24 -22.25 24.56 C-21.26 24.23 -20.27 23.9 -19.25 23.56 C-19.19 20.48 -19.16 17.4 -19.12 14.31 C-19.11 13.44 -19.09 12.57 -19.07 11.67 C-19.07 10.82 -19.06 9.98 -19.05 9.11 C-19.04 8.33 -19.03 7.56 -19.02 6.76 C-19.28 4.3 -20.03 2.69 -21.25 0.56 C-13.62 -0.56 -13.62 -0.56 -10.25 0.56 C-9.92 1.22 -9.59 1.88 -9.25 2.56 C-8.84 2.09 -8.42 1.61 -8 1.12 C-5.1 -1.46 -3.37 -2.16 0 0 Z " fill="#F8FBFC" transform="translate(870.25,538.4375)"/>
<path d="M0 0 C0.33 0.99 0.66 1.98 1 3 C1.7 2.34 2.4 1.68 3.12 1 C6.43 -1.3 8.06 -1.37 12 -1 C12.66 0.65 13.32 2.3 14 4 C13.34 4.66 12.68 5.32 12 6 C8.38 5.62 8.38 5.62 5 5 C2.95 9.22 2.79 12.65 2.88 17.31 C2.9 19.19 2.9 19.19 2.93 21.11 C2.95 22.07 2.98 23.02 3 24 C4.32 24.66 5.64 25.32 7 26 C1.72 26 -3.56 26 -9 26 C-9.33 25.34 -9.66 24.68 -10 24 C-8.68 24 -7.36 24 -6 24 C-6.14 20.9 -6.29 17.79 -6.44 14.69 C-6.48 13.81 -6.52 12.93 -6.56 12.02 C-6.6 11.17 -6.64 10.32 -6.68 9.45 C-6.74 8.28 -6.74 8.28 -6.79 7.08 C-6.94 4.81 -6.94 4.81 -8 2 C-8.66 1.67 -9.32 1.34 -10 1 C-3.3 -1.59 -3.3 -1.59 0 0 Z " fill="#F6FAFB" transform="translate(637,467)"/>
<path d="M0 0 C0.66 0.33 1.32 0.66 2 1 C2.1 1.62 2.21 2.24 2.31 2.88 C3.3 5.93 5.26 6.52 8 8 C8 8.33 8 8.66 8 9 C6.35 9 4.7 9 3 9 C3 15.27 3 21.54 3 28 C5.48 28.99 5.48 28.99 8 30 C8.66 30.33 9.32 30.66 10 31 C7.64 33.18 6.29 33.96 3.06 34.38 C-0.67 33.92 -2.21 33.57 -5 31 C-5.65 27.43 -5.47 23.93 -5.31 20.31 C-5.29 19.32 -5.27 18.34 -5.24 17.32 C-5.19 14.88 -5.1 12.44 -5 10 C-5.66 10 -6.32 10 -7 10 C-7 9.34 -7 8.68 -7 8 C-7.66 7.67 -8.32 7.34 -9 7 C-8.07 6.4 -7.14 5.8 -6.19 5.19 C-3.8 3.55 -1.92 2.13 0 0 Z " fill="#F9FCFD" transform="translate(732,460)"/>
<path d="M0 0 C3.26 3.73 4.01 8.15 4 13 C3.25 16.88 3.25 16.88 2 20 C-1 22 -1 22 -3.5 21.75 C-6 21 -6 21 -9 19 C-10.95 14.2 -10.54 8.84 -8.62 4.12 C-6.44 -0.08 -4.64 -0.68 0 0 Z " fill="#021822" transform="translate(671,469)"/>
<path d="M0 0 C2.25 1.81 2.25 1.81 3.25 4.81 C3.39 6.98 3.47 9.14 3.5 11.31 C3.54 13.03 3.54 13.03 3.58 14.78 C3.25 17.81 3.25 17.81 1.89 19.7 C-0.48 21.31 -1.95 21.22 -4.75 20.81 C-7.84 19.01 -8.6 18.27 -9.75 14.81 C-10.04 9.76 -9.69 5.51 -7.75 0.81 C-4.61 -1.39 -3.53 -1.53 0 0 Z " fill="#021822" transform="translate(803.75,541.1875)"/>
<path d="M0 0 C3.37 3.46 4.28 6.37 4.44 11.06 C4.25 15.08 3.96 18.04 1 21 C-1.94 21.56 -1.94 21.56 -5 21 C-7.83 18.83 -8.89 17.69 -9.46 14.12 C-9.42 12.58 -9.42 12.58 -9.38 11 C-9.36 9.97 -9.35 8.94 -9.34 7.88 C-9.01 5.06 -8.54 3.35 -7 1 C-4.35 -0.33 -2.94 -0.49 0 0 Z " fill="#021822" transform="translate(767,541)"/>
<path d="M0 0 C3.22 3.32 3.43 5.96 3.44 10.5 C3.46 11.62 3.48 12.75 3.5 13.91 C2.9 17.59 1.96 18.79 -1 21 C-3.95 20.93 -5.43 20.44 -7.75 18.62 C-10.52 15.03 -10.29 11.35 -10 7 C-9.25 4.39 -8.31 2.43 -7 0 C-3.84 -1.05 -2.99 -1.22 0 0 Z " fill="#021822" transform="translate(842,470)"/>
<path d="M0 0 C2 3 2 3 2 6 C-0.97 6 -3.94 6 -7 6 C-7 3 -7 3 -5.75 1.31 C-4 0 -4 0 0 0 Z " fill="#061C26" transform="translate(774,469)"/>
<path d="M0 0 C0.78 0.04 1.57 0.08 2.38 0.12 C3.03 1.77 3.7 3.42 4.38 5.12 C3.38 6.12 3.38 6.12 -0.19 6.19 C-1.32 6.17 -2.46 6.15 -3.62 6.12 C-4.25 4.25 -4.25 4.25 -4.62 2.12 C-2.62 0.12 -2.62 0.12 0 0 Z " fill="#021822" transform="translate(833.625,540.875)"/>
<path d="M0 0 C0.78 0.04 1.57 0.08 2.38 0.12 C2.71 1.77 3.03 3.42 3.38 5.12 C0.74 5.12 -1.9 5.12 -4.62 5.12 C-4.62 1.22 -3.96 0.19 0 0 Z " fill="#021822" transform="translate(715.625,540.875)"/>
<path d="M0 0 C0.78 0.04 1.57 0.08 2.38 0.12 C2.71 1.77 3.03 3.42 3.38 5.12 C0.74 5.12 -1.9 5.12 -4.62 5.12 C-4.62 1.22 -3.96 0.19 0 0 Z " fill="#021822" transform="translate(653.625,540.875)"/>
</svg>
